<svg width="17.000000" height="17.000000" viewBox="0 0 17 17" fill="none" xmlns="http://www.w3.org/2000/svg" xmlns:xlink="http://www.w3.org/1999/xlink">
	<desc>
			Created with Pixso.
	</desc>
	<defs/>
	<path id="矢量 39" d="M12.16 1.49L15.5 1.49C15.72 1.49 15.93 1.58 16.08 1.74C16.24 1.9 16.33 2.11 16.33 2.33L16.33 15.66C16.33 15.88 16.24 16.09 16.08 16.25C15.93 16.41 15.72 16.5 15.5 16.5L0.5 16.5C0.27 16.5 0.06 16.41 -0.09 16.25C-0.25 16.09 -0.34 15.88 -0.34 15.66L-0.34 2.33C-0.34 2.11 -0.25 1.9 -0.09 1.74C0.06 1.58 0.27 1.49 0.5 1.49L3.83 1.49L3.83 -0.17L5.5 -0.17L5.5 1.49L10.5 1.49L10.5 -0.17L12.16 -0.17L12.16 1.49ZM14.66 6.49L14.66 3.16L12.16 3.16L12.16 4.83L10.5 4.83L10.5 3.16L5.5 3.16L5.5 4.83L3.83 4.83L3.83 3.16L1.33 3.16L1.33 6.49L14.66 6.49ZM14.66 8.16L1.33 8.16L1.33 14.83L14.66 14.83L14.66 8.16ZM3 9.83L7.16 9.83L7.16 13.16L3 13.16L3 9.83Z" fill="#298E42" fill-opacity="1.000000" fill-rule="evenodd"/>
</svg>
