<svg width="13.000000" height="13.000000" viewBox="0 0 13 13" fill="none" xmlns="http://www.w3.org/2000/svg" xmlns:xlink="http://www.w3.org/1999/xlink">
	<desc>
			Created with Pixso.
	</desc>
	<defs/>
	<path id="矢量 97" d="M0.5 8L0.5 0.5L-0.75 0.5L-0.75 -0.75L1.12 -0.75C1.29 -0.75 1.44 -0.69 1.56 -0.57C1.68 -0.45 1.75 -0.3 1.75 -0.13L1.75 7.37L9.52 7.37L10.77 2.37L3 2.37L3 1.12L11.57 1.12C11.67 1.12 11.76 1.14 11.84 1.18C11.93 1.22 12 1.29 12.06 1.36C12.12 1.44 12.16 1.52 12.18 1.62C12.2 1.71 12.2 1.8 12.18 1.9L10.61 8.15C10.58 8.28 10.5 8.4 10.39 8.49C10.28 8.57 10.15 8.62 10.01 8.62L1.12 8.62C0.95 8.62 0.8 8.55 0.68 8.44C0.56 8.32 0.5 8.16 0.5 8L0.5 8ZM1.75 12.37C1.41 12.37 1.1 12.24 0.86 12C0.63 11.77 0.5 11.45 0.5 11.12C0.5 10.79 0.63 10.47 0.86 10.24C1.1 10 1.41 9.87 1.75 9.87C2.08 9.87 2.39 10 2.63 10.24C2.86 10.47 3 10.79 3 11.12C3 11.45 2.86 11.77 2.63 12C2.39 12.24 2.08 12.37 1.75 12.37ZM9.25 12.37C8.91 12.37 8.6 12.24 8.36 12C8.13 11.77 8 11.45 8 11.12C8 10.79 8.13 10.47 8.36 10.24C8.6 10 8.91 9.87 9.25 9.87C9.58 9.87 9.89 10 10.13 10.24C10.36 10.47 10.5 10.79 10.5 11.12C10.5 11.45 10.36 11.77 10.13 12C9.89 12.24 9.58 12.37 9.25 12.37Z" fill="#fff" fill-opacity="1.000000" fill-rule="evenodd"/>
</svg>
