<svg width="15.000000" height="16.000000" viewBox="0 0 15 16" fill="none" xmlns="http://www.w3.org/2000/svg" xmlns:xlink="http://www.w3.org/1999/xlink">
	<desc>
			Created with Pixso.
	</desc>
	<defs/>
	<path id="矢量 51" d="M12.75 6.75C11.7 6.25 10.52 6.12 9.39 6.36C8.25 6.61 7.24 7.22 6.49 8.1C5.74 8.98 5.3 10.09 5.25 11.25C5.19 12.4 5.52 13.55 6.19 14.5L-0.01 14.5C-0.21 14.49 -0.4 14.41 -0.54 14.28C-0.67 14.14 -0.75 13.95 -0.75 13.75L-0.75 0.24C-0.75 -0.17 -0.42 -0.5 -0.01 -0.5L9 -0.5L12.75 3.25L12.75 6.75ZM10.5 15.25C9.5 15.25 8.55 14.85 7.84 14.15C7.14 13.44 6.75 12.49 6.75 11.5C6.75 10.5 7.14 9.55 7.84 8.84C8.55 8.14 9.5 7.75 10.5 7.75C11.49 7.75 12.44 8.14 13.15 8.84C13.85 9.55 14.25 10.5 14.25 11.5C14.25 12.49 13.85 13.44 13.15 14.15C12.44 14.85 11.49 15.25 10.5 15.25L10.5 15.25ZM9.53 13.53C9.95 13.73 10.42 13.79 10.88 13.71C11.33 13.64 11.76 13.42 12.09 13.09C12.42 12.76 12.64 12.33 12.71 11.88C12.79 11.42 12.73 10.95 12.53 10.53L9.53 13.53L9.53 13.53ZM8.46 12.46L11.46 9.46C11.04 9.26 10.57 9.2 10.11 9.28C9.66 9.36 9.23 9.57 8.9 9.9C8.57 10.23 8.35 10.66 8.28 11.11C8.2 11.57 8.26 12.05 8.46 12.47L8.46 12.46Z" fill="#FD6464" fill-opacity="1.000000" fill-rule="evenodd"/>
</svg>
