<svg width="20.000000" height="20.000000" viewBox="0 0 20 20" fill="none" xmlns="http://www.w3.org/2000/svg" xmlns:xlink="http://www.w3.org/1999/xlink">
	<desc>
			Created with Pixso.
	</desc>
	<defs/>
	<path id="矢量 62" d="M2 4L0 4L0 18C0 19.1 0.89 20 2 20L16 20L16 18L2 18L2 4ZM18 0L6 0C4.89 0 4 0.9 4 2L4 14C4 15.1 4.89 16 6 16L18 16C19.1 16 20 15.1 20 14L20 2C20 0.9 19.1 0 18 0ZM17 9L7 9L7 7L17 7L17 9ZM13 13L7 13L7 11L13 11L13 13ZM17 5L7 5L7 3L17 3L17 5Z" fill="#2CF45C" fill-opacity="1.000000" fill-rule="evenodd"/>
</svg>
