<svg width="30.000000" height="30.000000" viewBox="0 0 30 30" fill="none" xmlns="http://www.w3.org/2000/svg" xmlns:xlink="http://www.w3.org/1999/xlink">
	<desc>
			Created with Pixso.
	</desc>
	<defs/>
	<path id="矢量 47" d="M21.83 1.42L9.98 13.27L9.99 20.02L16.72 20L28.57 8.16L28.57 28.41C28.57 28.83 28.4 29.23 28.1 29.53C27.8 29.83 27.4 30 26.98 30L1.58 30C1.16 30 0.76 29.83 0.46 29.53C0.16 29.23 0 28.83 0 28.41L0 3.01C0 2.59 0.16 2.19 0.46 1.89C0.76 1.59 1.16 1.42 1.58 1.42L21.83 1.42L21.83 1.42ZM27.75 0L30 2.24L15.4 16.83L13.16 16.84L13.16 14.59L27.75 0L27.75 0Z" fill="#298E42" fill-opacity="1.000000" fill-rule="evenodd"/>
</svg>
