<svg width="24.000000" height="24.000000" viewBox="0 0 24 24" fill="none" xmlns="http://www.w3.org/2000/svg" xmlns:xlink="http://www.w3.org/1999/xlink">
	<desc>
			Created with Pixso.
	</desc>
	<defs>
		<clipPath id="clip240_27">
			<rect id="exit_to_app" width="24.000000" height="24.000000" fill="white" fill-opacity="0"/>
		</clipPath>
	</defs>
	<rect id="exit_to_app" width="24.000000" height="24.000000" fill="#FFFFFF" fill-opacity="0"/>
	<g clip-path="url(#clip240_27)">
		<path id="矢量 110" d="M10.09 15.59L11.5 17L16.5 12L11.5 7L10.09 8.4L12.67 11L3 11L3 13L12.67 13L10.09 15.59ZM19 3L5 3C3.89 3 3 3.89 3 5L3 9L5 9L5 5L19 5L19 19L5 19L5 15L3 15L3 19C3 20.1 3.89 21 5 21L19 21C20.1 21 21 20.1 21 19L21 5C21 3.89 20.1 3 19 3Z" fill="#444444" fill-opacity="1.000000" fill-rule="evenodd"/>
	</g>
</svg>
