<svg width="10.000000" height="10.000000" viewBox="0 0 10 10" fill="none" xmlns="http://www.w3.org/2000/svg" xmlns:xlink="http://www.w3.org/1999/xlink">
	<desc>
			Created with Pixso.
	</desc>
	<defs/>
	<path id="↳ Icon Color" d="M0.29 1.7C-0.1 1.31 -0.1 0.68 0.29 0.29C0.68 -0.1 1.31 -0.1 1.7 0.29L5 3.58L8.29 0.29C8.68 -0.1 9.31 -0.1 9.7 0.29C10.09 0.68 10.09 1.31 9.7 1.7L6.41 5L9.7 8.29C10.09 8.68 10.09 9.31 9.7 9.7C9.31 10.09 8.68 10.09 8.29 9.7L5 6.41L1.7 9.7C1.31 10.09 0.68 10.09 0.29 9.7C-0.1 9.31 -0.1 8.68 0.29 8.29L3.58 5L0.29 1.7Z" fill="#FFFFFF" fill-opacity="1.000000" fill-rule="evenodd"/>
</svg>
