<svg width="30.000000" height="30.000000" viewBox="0 0 30 30" fill="none" xmlns="http://www.w3.org/2000/svg" xmlns:xlink="http://www.w3.org/1999/xlink">
	<desc>
			Created with Pixso.
	</desc>
	<defs/>
	<path id="矢量 171" d="M14.48 -0.09C6.43 -0.09 -0.09 6.44 -0.09 14.5C-0.09 22.55 6.43 29.08 14.48 29.08C22.54 29.08 29.08 22.55 29.08 14.5C29.08 6.44 22.54 -0.09 14.48 -0.09ZM24.59 8.66L20.28 8.66C19.82 6.84 19.15 5.09 18.27 3.47C20.96 4.39 23.19 6.26 24.59 8.66ZM14.5 2.89C15.71 4.64 16.65 6.58 17.28 8.66L11.71 8.66C12.34 6.58 13.28 4.64 14.5 2.89ZM3.21 17.41C2.97 16.48 2.83 15.5 2.83 14.5C2.83 13.49 2.97 12.51 3.21 11.58L8.14 11.58C8.02 12.54 7.93 13.5 7.93 14.5C7.93 15.49 8.02 16.45 8.14 17.41L3.21 17.41ZM4.4 20.33L8.71 20.33C9.17 22.15 9.84 23.9 10.72 25.52C8.03 24.6 5.8 22.75 4.4 20.33ZM8.71 8.66L4.4 8.66C5.8 6.24 8.03 4.39 10.72 3.47C9.84 5.09 9.17 6.84 8.71 8.66ZM14.5 26.1C13.28 24.35 12.34 22.41 11.71 20.33L17.28 20.33C16.65 22.41 15.71 24.35 14.5 26.1ZM17.91 17.41L11.08 17.41C10.95 16.45 10.85 15.49 10.85 14.5C10.85 13.5 10.95 12.53 11.08 11.58L17.91 11.58C18.04 12.53 18.14 13.5 18.14 14.5C18.14 15.49 18.04 16.45 17.91 17.41ZM18.27 25.52C19.15 23.9 19.82 22.15 20.28 20.33L24.59 20.33C23.19 22.73 20.96 24.6 18.27 25.52ZM20.85 17.41C20.97 16.45 21.06 15.49 21.06 14.5C21.06 13.5 20.97 12.54 20.85 11.58L25.78 11.58C26.02 12.51 26.16 13.49 26.16 14.5C26.16 15.5 26.02 16.48 25.78 17.41L20.85 17.41Z" fill="#FFFFFF" fill-opacity="1.000000" fill-rule="evenodd"/>
</svg>
