<svg width="24.000000" height="24.000000" viewBox="0 0 24 24" fill="none" xmlns="http://www.w3.org/2000/svg" xmlns:xlink="http://www.w3.org/1999/xlink">
	<desc>
			Created with Pixso.
	</desc>
	<defs/>
	<path id="Vector" d="M11.5 -0.22C5.02 -0.22 -0.22 5.02 -0.22 11.5C-0.22 17.97 5.02 23.21 11.5 23.21C17.97 23.21 23.21 17.97 23.21 11.5C23.21 5.02 17.97 -0.22 11.5 -0.22ZM19.31 12.67C19.31 12.88 19.06 13.06 18.75 13.06L13.06 13.06L13.06 18.75C13.06 19.06 12.88 19.31 12.67 19.31L10.32 19.31C10.11 19.31 9.93 19.06 9.93 18.75L9.93 13.06L4.24 13.06C3.93 13.06 3.68 12.88 3.68 12.67L3.68 10.32C3.68 10.11 3.93 9.93 4.24 9.93L9.93 9.93L9.93 4.24C9.93 3.93 10.11 3.68 10.32 3.68L12.67 3.68C12.88 3.68 13.06 3.93 13.06 4.24L13.06 9.93L18.75 9.93C19.06 9.93 19.31 10.11 19.31 10.32L19.31 12.67Z" fill="#2CF45C" fill-opacity="1.000000" fill-rule="evenodd"/>
</svg>
