<svg width="20.000000" height="18.000000" viewBox="0 0 20 18" fill="none" xmlns="http://www.w3.org/2000/svg" xmlns:xlink="http://www.w3.org/1999/xlink">
	<desc>
			Created with Pixso.
	</desc>
	<defs/>
	<path id="矢量 237" d="M16.79 4.33L2.2 4.33C0.47 4.33 -0.92 5.72 -0.92 7.45L-0.92 13.7L3.25 13.7L3.25 17.87L15.75 17.87L15.75 13.7L19.91 13.7L19.91 7.45C19.91 5.72 18.52 4.33 16.79 4.33ZM13.66 15.79L5.33 15.79L5.33 10.58L13.66 10.58L13.66 15.79ZM16.79 8.5C16.21 8.5 15.75 8.03 15.75 7.45C15.75 6.88 16.21 6.41 16.79 6.41C17.36 6.41 17.83 6.88 17.83 7.45C17.83 8.03 17.36 8.5 16.79 8.5ZM15.75 -0.88L3.25 -0.88L3.25 3.29L15.75 3.29L15.75 -0.88Z" fill="#298E42" fill-opacity="1.000000" fill-rule="evenodd"/>
</svg>
