<svg width="30.000000" height="30.000000" viewBox="0 0 30 30" fill="none" xmlns="http://www.w3.org/2000/svg" xmlns:xlink="http://www.w3.org/1999/xlink">
	<desc>
			Created with Pixso.
	</desc>
	<defs/>
	<path id="矢量 102" d="M14.5 -0.09C6.45 -0.09 -0.09 6.44 -0.09 14.49C-0.09 22.55 6.45 29.08 14.5 29.08C22.55 29.08 29.08 22.55 29.08 14.49C29.08 6.44 22.55 -0.09 14.5 -0.09ZM23.25 14.49C23.25 19.32 19.32 23.24 14.5 23.24C9.67 23.24 5.75 19.32 5.75 14.49L8.66 14.49C8.66 17.72 11.27 20.33 14.5 20.33C17.72 20.33 20.33 17.72 20.33 14.49C20.33 11.27 17.72 8.66 14.5 8.66L14.5 13.04L8.66 7.2L14.5 1.37L14.5 5.74C19.32 5.74 23.25 9.67 23.25 14.49Z" fill="#3290ED" fill-opacity="1.000000" fill-rule="evenodd"/>
</svg>
