<svg width="35.000000" height="35.000000" viewBox="0 0 35 35" fill="none" xmlns="http://www.w3.org/2000/svg" xmlns:xlink="http://www.w3.org/1999/xlink">
	<desc>
			Created with Pixso.
	</desc>
	<defs/>
	<path id="Primary fill" d="M17 -0.5C26.64 -0.5 34.5 7.35 34.5 17C34.5 26.64 26.64 34.5 17 34.5C7.35 34.5 -0.5 26.64 -0.5 17C-0.5 7.35 7.35 -0.5 17 -0.5ZM27.92 25.75C25.35 28.94 21.41 31 17 31C12.58 31 8.64 28.94 6.07 25.74C8.64 22.55 12.58 20.5 16.99 20.5C21.41 20.5 25.35 22.55 27.92 25.75ZM17 17C19.89 17 22.25 14.64 22.25 11.75C22.25 8.85 19.89 6.5 17 6.5C14.1 6.5 11.75 8.85 11.75 11.75C11.75 14.64 14.1 17 17 17Z" fill="#FFFFFF" fill-opacity="1.000000" fill-rule="evenodd"/>
</svg>
